Patient4_TMGait_0pt2_01_left_11_EMG.mot
version=1
nRows=16
nColumns=33
inDegrees=no
endheader
time	1LAddLong	2LGlutMax	3LGlutMed	4LIliopsoas	5LSemiMemb	6LBicFemLong	7LRecFem	8LVastMed	9LVastLat	10LGasMed	11LTibAnt	12lTibPost	13LPeroneusLong	14LSol	15LExtDigLong	16LFlexDigLong	17RAddLong	18RGlutMax	19RGlutMed	20RIliopsoas	21RSemiMemb	22RBicFemLong	23RRecFem	24RVastMed	25RVastLat	26RGasMed	27RTibAnt	28RTibPost	29RPeroneusLong	30RSol	31RExtDigLong	32RFlexDigLong
25.452	-0.002747	0.040436	0.012512	-0.002441	0.054016	-0.02121	-0.0177	-0.00824	0.004578	-0.035553	-0.000153	-0.005035	0.094147	0.014191	-0.030518	-0.012512	-0.014648	0.012665	0.011902	-0.042267	0.055389	0.17639	-0.015106	0.023956	0.027618	-0.038605	0.021973	0.27603	0.21316	0.059814	-0.003204	0.007935
25.453	-0.017853	0.058746	-0.00946	0.003967	0.042267	-0.009613	0.021973	0.003357	-0.031281	-0.1709	0.006714	-0.002594	-0.014801	-0.002747	0.011444	-0.002899	-0.001831	-0.003662	0.074615	-0.035858	0.061493	0.30701	0.023804	0.017548	0.028076	-0.02533	0.010376	0.13977	0.15045	0.072479	-0.002747	0.009918
25.454	-0.030823	0.066071	0.014801	0.006409	-0.005646	0.064392	0.032501	0.007935	-0.020905	-0.36682	-0.007324	0.001068	-0.068665	-0.037384	0.005798	0.003052	0.026245	-0.016022	0.099487	0.002136	0.093231	0.44006	0.052338	0.014496	0.001984	-0.010376	-0.006256	0.044861	0.13825	0.18906	-0.007172	0.007782
25.455	-0.041046	0.092468	0.016022	-0.001831	-0.049438	0.081024	0.000916	0.009766	-0.009766	-0.27161	-0.014954	-0.006866	0.081329	0.13809	0.004883	0.003815	0.038147	0.002899	0.052338	0.005646	0.060577	0.18646	0.090637	-0.022888	-0.002899	-0.002136	-0.007782	0.009155	0.016632	0.13336	-0.00412	0.009613
25.456	-0.032959	0.071411	-0.031433	0.02182	-0.086212	0.091705	0.020142	0.005188	-0.068665	0.034943	0.007935	-0.003204	-0.014038	0.080261	0.006714	-0.014496	0.018616	0.027924	0.032043	0.004425	-0.15442	0.10132	0.13657	-0.065308	-0.038757	-0.003967	-0.012054	0.006561	0.010071	0.16617	-0.005341	0.009766
25.457	-0.034485	0.11719	-0.054169	0.020447	-0.061798	0.03067	0.028992	-0.005035	-0.05722	0.2887	0.007324	0.00412	0.17624	0.11688	0.00824	-0.054016	-0.017242	0.062103	0.055695	-0.000916	-0.2652	0.015717	0.14755	-0.0354	-0.038757	0.010376	0.010376	0.008545	0.026855	0.11368	-0.010681	0.012665
25.458	-0.011139	0.11124	-0.071411	0.024567	0.063934	-0.040131	-0.032501	-0.002289	-0.018463	0.2832	0.004578	-0.005493	0.13504	0.20737	0.026703	-0.038147	-0.002747	0.018005	0.093079	-0.005951	0.15182	-0.1239	0.13825	-0.027924	-0.089569	0.001831	0.005188	0.001526	-0.011444	0.054932	-0.003357	0.005188
25.459	0.020142	0.12405	0.062561	0.016022	0.045471	-0.057526	-0.06424	-0.007782	0.022278	-0.033875	-0.022888	-0.003204	0.35828	0.14038	0.018921	0.067902	0.000153	0.020905	0.21316	-0.00061	0.18295	-0.12161	-0.029755	-0.044708	-0.071259	0.005951	0.010223	-0.070801	-0.062256	0.065308	-0.002899	-0.005188
25.46	0.019989	0.11536	0.057678	0.002441	0.016479	-0.046082	-0.12955	-0.002899	0.080872	-0.050049	-0.02121	0.002594	0.54108	-0.001221	0	0.068665	-0.006409	0.014648	0.080261	-0.081329	0.17944	-0.018463	-0.1355	-0.046844	0.026703	0.007629	0.014038	-0.18677	0.02594	0.072784	0.002136	-0.003815
25.461	0.005951	0.1181	0.019684	-0.012207	0.006104	-0.018921	-0.062256	-0.008545	0.051422	-0.08255	-0.009155	0.00412	0.25406	-0.057373	0.007477	-0.020142	-0.007324	0.050812	0.043488	-0.15869	0.09552	-0.027924	0.034943	-0.054626	0.080109	-0.030212	0.017548	0.045776	0.15732	0.066376	-0.005646	0.006256
25.462	0.002289	0.077972	0.001068	-0.001678	-0.014648	-0.039063	-0.032196	0.000916	-0.052185	-0.09491	0.009308	-0.00061	0.049286	-0.047302	0.011292	-0.020447	0.016479	0.098724	0.44098	-0.16235	0.031128	-0.009918	0.036926	-0.04776	0.029602	-0.053253	-0.014343	0.08255	0.29938	0.079956	-0.002441	0.007172
25.463	-0.000153	0.10666	-0.012817	0.006104	0.044556	-0.044861	-0.066223	0.015411	-0.15701	0.061646	0.018768	0.006409	-0.16205	0.076141	0.025635	0.010376	0.02182	0.00473	0.30792	0.089722	0.009918	-0.006714	-0.052032	-0.050964	0.045166	-0.019226	-0.016022	0.029907	0.11963	-0.028534	-0.00412	0.002289
25.464	-0.003662	0.10208	0.012207	0.002899	0.040588	-0.004425	-0.084686	0.016174	-0.095978	0.22232	0.026398	-0.003204	-0.61386	0.20279	-0.014954	0.01236	0.037384	0.016632	-0.1474	0.1442	0.02243	-0.032349	-0.093231	-0.030365	0.083466	0.007172	0.001678	-0.005951	-0.37643	-0.058899	-0.007172	-0.00351
25.465	-0.020294	0.079651	-0.005341	0.007019	0.039215	0.015717	-0.002289	0.020905	-0.028229	0.13565	0.036316	-0.007172	-0.68817	0.1181	-0.09201	0.012512	0.024109	-0.030823	-0.16098	0.071716	-0.032043	-0.069733	-0.033722	0.005646	0.13046	0.028076	0.02243	-0.06134	-0.78903	-0.14893	0.000458	0.003357
25.466	-0.018311	0.10223	-0.007629	-0.00351	0.041046	0.055847	0.055084	0.016937	0.015564	-0.024719	-0.0177	-0.015869	0.026855	-0.005188	-0.10269	0.005035	-0.029755	0.004883	0.055084	0.047607	-0.069275	0.028687	-0.040741	0.050659	0.11948	0.03006	-0.015259	-0.11612	0.36774	-0.34592	-0.003967	0.004578
25.467	-0.013885	0.072784	0.014648	-0.006561	0.015411	0.086823	0.051727	0.006866	0.037689	0.000458	-0.017548	0.006714	-0.046387	-0.20508	-0.092926	0.001831	-0.029907	-0.023956	0.006714	0.015106	0.10834	0.057526	-0.040283	0.040283	0.059967	0.021667	0.043182	-0.028534	1.1475	-0.289	-0.000916	-0.006409
